<svg width="128" height="82" viewBox="0 0 128 82" fill="none" xmlns="http://www.w3.org/2000/svg">
<path d="M0 64C0 62.3431 1.34315 61 3 61H15C16.6569 61 18 62.3431 18 64V82H0V64Z" fill="#D2D2D2"/>
<path d="M44 64C44 62.3431 45.3431 61 47 61H59C60.6569 61 62 62.3431 62 64V82H44V64Z" fill="#D2D2D2"/>
<path d="M22 39C22 37.3431 23.3431 36 25 36H37C38.6569 36 40 37.3431 40 39V82H22V39Z" fill="#D2D2D2"/>
<path d="M88 39C88 37.3431 89.3431 36 91 36H103C104.657 36 106 37.3431 106 39V82H88V39Z" fill="#D2D2D2"/>
<path d="M66 18C66 16.3431 67.3431 15 69 15H81C82.6569 15 84 16.3431 84 18V82H66V18Z" fill="#D2D2D2"/>
<path d="M110 3C110 1.34315 111.343 0 113 0H125C126.657 0 128 1.34315 128 3V82H110V3Z" fill="#D2D2D2"/>
</svg>
