<svg width="24" height="24" viewBox="0 0 24 24" fill="none" xmlns="http://www.w3.org/2000/svg">
<path d="M10 22V16.9612C10 16.3537 10.2762 15.7791 10.7506 15.3995L12.5 14M12.5 14L11 7.5M12.5 14L14 13M11 7.5L13 7M11 7.5L8.95744 10.7681C8.66549 11.2352 8.19382 11.5612 7.65367 11.6693L6 12M14 13L13 7M14 13L14.5999 16.2994C14.8133 17.473 15.9999 18.2 17.1423 17.8573L20 17M13 7L15.8944 8.44721C16.572 8.786 17 9.47852 17 10.2361V12M9.5 3.5C9.5 4.05228 9.94772 4.5 10.5 4.5C11.0523 4.5 11.5 4.05228 11.5 3.5C11.5 2.94772 11.0523 2.5 10.5 2.5C9.94772 2.5 9.5 2.94772 9.5 3.5Z" stroke="black" stroke-width="2" stroke-linecap="round" stroke-linejoin="round"/>
</svg>
